<?xml version="1.0" encoding="utf-8"?>
<!-- Generator: Adobe Illustrator 17.0.0, SVG Export Plug-In . SVG Version: 6.00 Build 0)  -->
<!DOCTYPE svg PUBLIC "-//W3C//DTD SVG 1.1//EN" "http://www.w3.org/Graphics/SVG/1.1/DTD/svg11.dtd">
<svg version="1.1" id="图形" xmlns="http://www.w3.org/2000/svg" xmlns:xlink="http://www.w3.org/1999/xlink" x="0px" y="0px"
	 width="1000.636px" height="1000.678px" viewBox="15.167 -16.333 1000.636 1000.678"
	 enable-background="new 15.167 -16.333 1000.636 1000.678" xml:space="preserve">
<g>
	<g>
		<path d="M433.688,743.031c-47.323,0-93.241-9.271-136.477-27.559c-41.752-17.659-79.244-42.935-111.435-75.126
			s-57.467-69.684-75.125-111.435c-18.287-43.237-27.559-89.155-27.559-136.478s9.272-93.241,27.559-136.477
			c17.659-41.752,42.935-79.244,75.125-111.435s69.683-57.467,111.435-75.126c43.236-18.287,89.154-27.559,136.477-27.559
			c47.323,0,93.241,9.272,136.477,27.559c41.752,17.659,79.244,42.935,111.436,75.126s57.467,69.683,75.126,111.435
			c18.287,43.236,27.559,89.154,27.559,136.477s-9.271,93.24-27.559,136.478c-17.659,41.751-42.935,79.243-75.126,111.435
			s-69.684,57.467-111.436,75.126C526.929,733.759,481.011,743.031,433.688,743.031z M433.688,83.084
			c-82.634,0-160.319,32.177-218.746,90.604S124.339,309.8,124.339,392.434s32.177,160.319,90.604,218.746
			s136.112,90.604,218.746,90.604c82.634,0,160.32-32.178,218.747-90.604s90.604-136.112,90.604-218.746
			s-32.178-160.319-90.604-218.746C594.008,115.26,516.323,83.084,433.688,83.084z"/>
	</g>
	<g>
		<path d="M906.631,926.175c-10.556,0-21.112-4.027-29.166-12.081L644.593,681.223c-16.107-16.108-16.107-42.224,0-58.332
			c16.107-16.107,42.223-16.107,58.332,0l232.872,232.871c16.107,16.108,16.107,42.224,0,58.332
			C927.744,922.148,917.187,926.175,906.631,926.175z"/>
	</g>
</g>
<g display="none">
	<g display="inline">
		<path d="M515.485,61.911c-233.14,0-422.1,188.97-422.1,422.1c0,233.12,188.96,422.09,422.1,422.09s422.1-188.97,422.1-422.09
			C937.585,250.881,748.625,61.911,515.485,61.911z M718.085,641.581c12.43,12.44,12.43,32.59,0,45.03
			c-6.22,6.21-14.36,9.32-22.51,9.32c-8.15,0-16.3-3.11-22.51-9.32l-157.58-157.58l-157.58,157.58c-6.21,6.21-14.36,9.32-22.51,9.32
			c-8.14,0-16.29-3.11-22.51-9.32c-12.43-12.44-12.43-32.59,0-45.03l157.58-157.57l-157.58-157.58c-12.43-12.43-12.43-32.59,0-45.02
			c12.43-12.43,32.59-12.43,45.02,0l157.58,157.58l157.58-157.58c12.43-12.43,32.59-12.43,45.02,0s12.43,32.59,0,45.02
			l-157.58,157.58L718.085,641.581z"/>
	</g>
</g>
</svg>
